<?xml version="1.0" encoding="UTF-8"?>
<svg xmlns="http://www.w3.org/2000/svg" xmlns:xlink="http://www.w3.org/1999/xlink" viewBox="0 0 1080 1080">
  <defs>
    <style>
      .cls-1 {
        fill: url(#linear-gradient);
      }

      .cls-1, .cls-2, .cls-3 {
        stroke-width: 0px;
      }

      .cls-2 {
        fill: url(#radial-gradient);
      }

      .cls-4 {
        fill: #1d1c1c;
      }

      .cls-4, .cls-5, .cls-6, .cls-7, .cls-8 {
        stroke: #1d1c1c;
        stroke-linejoin: round;
        stroke-width: 1.5px;
      }

      .cls-5 {
        fill: #fff;
      }

      .cls-6, .cls-8 {
        fill: none;
      }

      .cls-3 {
        fill: url(#radial-gradient-2);
      }

      .cls-7 {
        fill: url(#linear-gradient-2);
      }

      .cls-8 {
        stroke-linecap: round;
      }
    </style>
    <linearGradient id="linear-gradient" x1="444.44" y1="559.98" x2="266.58" y2="938.1" gradientUnits="userSpaceOnUse">
      <stop offset=".23" stop-color="#fff"/>
      <stop offset=".44" stop-color="#fff" stop-opacity=".58"/>
      <stop offset=".71" stop-color="#fff" stop-opacity="0"/>
    </linearGradient>
    <linearGradient id="linear-gradient-2" x1="398.29" y1="687.4" x2="822.51" y2="-107.63" gradientUnits="userSpaceOnUse">
      <stop offset=".16" stop-color="#83f582"/>
      <stop offset=".6" stop-color="#7af6eb"/>
      <stop offset=".65" stop-color="#7af7f7"/>
    </linearGradient>
    <radialGradient id="radial-gradient" cx="668.48" cy="264.13" fx="668.48" fy="264.13" r="154.56" gradientUnits="userSpaceOnUse">
      <stop offset=".36" stop-color="#fff"/>
      <stop offset=".63" stop-color="#fff" stop-opacity=".58"/>
      <stop offset="1" stop-color="#fff" stop-opacity="0"/>
    </radialGradient>
    <radialGradient id="radial-gradient-2" cx="927.96" cy="474.29" fx="927.96" fy="474.29" r="159.56" xlink:href="#radial-gradient"/>
  </defs>
  <g id="Layer_1" data-name="Layer 1">
    <path class="cls-1" d="M528.47,929.39s111.96-79.3,177.17-219.19l16.29-37.93L195.44,472.58l-17.96-1.92-5.73,30.41c-30.71,105.01-143.13,237.42-143.13,237.42"/>
    <path class="cls-5" d="M896.39,412.42l35.93,34.72,43.87-22.31c9.31-4.73,19.34,4.98,14.9,14.44l-21.2,45.17,34.07,34.78c7.27,7.42,1.11,19.84-9.19,18.56l-48.74-6.09-23.41,43.18c-4.95,9.13-18.64,6.91-20.44-3.32l-8.46-47.95-49.08-9.04c-10.27-1.89-12.33-15.7-3.07-20.52l43.67-22.7-7.33-49.42c-1.54-10.36,10.94-16.77,18.47-9.5Z"/>
    <path class="cls-5" d="M673.02,168.22l22.47,44.63,48.78-6.59c10.35-1.4,16.61,11.08,9.3,18.54l-34.92,35.65,20.69,44.08c4.41,9.4-5.5,19.1-14.8,14.49l-44-21.82-36.34,33.04c-7.68,6.99-19.87.37-18.2-9.88l7.83-48.06-43.35-24.72c-9.07-5.17-6.46-18.89,3.87-20.38l48.72-7.02,9.39-49.07c1.97-10.29,15.86-12.23,20.57-2.87Z"/>
    <g>
      <polygon class="cls-7" points="1051.39 173.2 912.57 470.85 912.49 470.92 745.01 701.92 745.01 701.89 566.01 632.12 499.2 606.06 391.13 738.48 342.29 544.91 156.75 472.59 156.76 472.58 150.25 404.99 576.06 311.72 575.92 311.78 576.07 311.75 1051.39 173.2"/>
      <polygon class="cls-2" points="1051.39 173.2 912.57 470.85 912.49 470.92 745.01 701.92 745.01 701.89 566.01 632.12 499.2 606.06 391.13 738.48 342.29 544.91 156.75 472.59 156.76 472.58 150.25 404.99 576.06 311.72 575.92 311.78 576.07 311.75 1051.39 173.2"/>
    </g>
    <g>
      <path class="cls-8" d="M171.75,501.06c-30.71,105.01-143.13,237.42-143.13,237.42"/>
      <path class="cls-8" d="M304.24,568.14c-38,94.32-108.8,152.36-108.8,152.36"/>
      <path class="cls-8" d="M394.73,802.81c-35.62,53.32-90.49,86.72-90.49,86.72"/>
      <path class="cls-8" d="M576.06,697.01c-46.51,96.68-122.35,170.02-122.35,170.02"/>
      <path class="cls-8" d="M705.64,710.2c-65.2,139.9-177.17,219.19-177.17,219.19"/>
      <path class="cls-8" d="M339.87,691.83c-25.26,56.01-71.26,93.3-71.26,93.3"/>
    </g>
    <path class="cls-5" d="M811.35,762.46l49.9,2.56,18.41-45.65c3.9-9.68,17.85-8.95,20.72,1.09l13.7,47.98,48.54,3.83c10.35.82,13.88,14.23,5.26,20.03l-40.74,27.44,10.73,47.93c2.27,10.13-9.51,17.45-17.59,10.93l-37.89-30.58-42.93,25.43c-8.98,5.32-19.62-3.73-15.8-13.45l18.01-45.81-38-32.44c-7.96-6.8-2.78-19.83,7.68-19.29Z"/>
    <path class="cls-5" d="M136.55,731.19l31.09,39.12,46.41-16.39c9.84-3.48,18.52,7.47,12.88,16.26l-26.93,42.01,29.23,38.94c6.24,8.3-1.49,19.82-11.54,17.2l-47.53-12.41-28.85,39.75c-6.1,8.4-19.38,4.41-19.83-5.96l-2.12-48.64-47.47-15.38c-9.93-3.22-10.18-17.18-.36-20.74l46.27-16.79-.8-49.96c-.17-10.47,13.04-15.2,19.55-7Z"/>
    <path class="cls-5" d="M160.16,156.85l21.54,45.08,48.9-5.58c10.37-1.18,16.38,11.43,8.92,18.73l-35.65,34.92,19.78,44.49c4.22,9.49-5.89,18.98-15.1,14.18l-43.54-22.73-37.02,32.28c-7.83,6.83-19.88-.04-17.99-10.25l8.82-47.89-42.83-25.61c-8.96-5.36-6.07-19.02,4.29-20.3l48.85-6.01,10.4-48.87c2.18-10.24,16.11-11.89,20.62-2.45Z"/>
    <polygon class="cls-3" points="1051.39 173.2 912.57 470.85 912.49 470.92 745.01 701.92 745.01 701.89 566.01 632.12 499.2 606.06 391.13 738.48 342.29 544.91 156.75 472.59 156.76 472.58 150.25 404.99 576.06 311.72 575.92 311.78 576.07 311.75 1051.39 173.2"/>
  </g>
  <g id="Layer_2" data-name="Layer 2">
    <g>
      <polygon class="cls-6" points="1051.38 173.2 499.2 606.07 391.12 738.49 342.29 544.91 1051.38 173.2"/>
      <polygon class="cls-4" points="566.01 632.12 391.12 738.49 499.2 606.07 566.01 632.12"/>
      <polygon class="cls-6" points="576.06 311.73 156.76 472.58 150.25 404.99 576.06 311.73"/>
      <polygon class="cls-4" points="912.55 470.83 745.01 636.88 745.01 701.92 912.55 470.83"/>
      <polygon class="cls-6" points="1051.38 173.2 342.29 544.91 156.74 472.6 575.92 311.78 576.08 311.74 1051.38 173.2"/>
      <polygon class="cls-6" points="1051.38 173.2 912.57 470.84 912.49 470.92 745 636.88 745 701.9 566.01 632.12 499.2 606.07 1051.38 173.2"/>
    </g>
  </g>
</svg>